HIERARCHY
ROOT Hips
{
  OFFSET 3.13124 94.3669 -3.18751
  CHANNELS  6 Xposition Yposition Zposition Zrotation Xrotation Yrotation
  JOINT LeftUpLeg
  {
    OFFSET 8.64259 1.95398 -2.38835
    CHANNELS 3 Zrotation Xrotation Yrotation
    JOINT LeftLeg
    {
      OFFSET 43.7702 0 0
      CHANNELS 3 Zrotation Xrotation Yrotation
      JOINT LeftFoot
      {
        OFFSET 40.6238 0 0
        CHANNELS 3 Zrotation Xrotation Yrotation
        JOINT LeftToeBase
        {
          OFFSET 12.7242 0 0
          CHANNELS 3 Zrotation Xrotation Yrotation
          End Site
          {
            OFFSET 0 0 0
          }
        }
      }
    }
  }
  JOINT RightUpLeg
  {
    OFFSET -8.2249 1.95398 -2.59336
    CHANNELS 3 Zrotation Xrotation Yrotation
    JOINT RightLeg
    {
      OFFSET 43.5653 0 0
      CHANNELS 3 Zrotation Xrotation Yrotation
      JOINT RightFoot
      {
        OFFSET 40.6238 0 0
        CHANNELS 3 Zrotation Xrotation Yrotation
        JOINT RightToeBase
        {
          OFFSET 12.7242 0 0
          CHANNELS 3 Zrotation Xrotation Yrotation
          End Site
          {
            OFFSET 0 0 0
          }
        }
      }
    }
  }
  JOINT Spine
  {
    OFFSET 0.165834 0.87714 6.61349
    CHANNELS 3 Zrotation Xrotation Yrotation
    JOINT Spine1
    {
      OFFSET 7.38962 1.71661e-005 0
      CHANNELS 3 Zrotation Xrotation Yrotation
      JOINT Spine2
      {
        OFFSET 11.9445 1.14441e-005 0
        CHANNELS 3 Zrotation Xrotation Yrotation
        JOINT Spine3
        {
          OFFSET 14.7254 4.19617e-005 0
          CHANNELS 3 Zrotation Xrotation Yrotation
          JOINT Spine4
          {
            OFFSET 10.9679 0 0
            CHANNELS 3 Zrotation Xrotation Yrotation
            JOINT RightShoulder
            {
              OFFSET 2.46616 -1.6653 3.69651
              CHANNELS 3 Zrotation Xrotation Yrotation
              JOINT RightArm
              {
                OFFSET 13.0012 0 0
                CHANNELS 3 Zrotation Xrotation Yrotation
                JOINT RightForeArm
                {
                  OFFSET 28.7848 1.52588e-005 0
                  CHANNELS 3 Zrotation Xrotation Yrotation
                  JOINT RightHand
                  {
                    OFFSET 26.5688 1.52588e-005 0
                    CHANNELS 3 Zrotation Xrotation Yrotation
                    End Site
                    {
                      OFFSET 0 0 0
                    }
                  }
                }
              }
            }
            JOINT LeftShoulder
            {
              OFFSET 2.38034 -1.29275 -3.75231
              CHANNELS 3 Zrotation Xrotation Yrotation
              JOINT LeftArm
              {
                OFFSET 16.3182 6.10352e-005 0
                CHANNELS 3 Zrotation Xrotation Yrotation
                JOINT LeftForeArm
                {
                  OFFSET 27.0901 0 0
                  CHANNELS 3 Zrotation Xrotation Yrotation
                  JOINT LeftHand
                  {
                    OFFSET 24.5451 1.52588e-005 0
                    CHANNELS 3 Zrotation Xrotation Yrotation
                    End Site
                    {
                      OFFSET 0 0 0
                    }
                  }
                }
              }
            }
            JOINT Neck
            {
              OFFSET 5.0226 -0.0266342 0
              CHANNELS 3 Zrotation Xrotation Yrotation
              JOINT Head
              {
                OFFSET 6.69363 2.86102e-005 0
                CHANNELS 3 Zrotation Xrotation Yrotation
                End Site
                {
                  OFFSET 0 0 0
                }
              }
            }
          }
        }
      }
    }
  }
}
MOTION
Frames:	11
Frame Time:	0.0333333
2.93873 97.9354 -21.0726 165.604 -89.9929 165.668 -171.753 2.79112 92.069 -8.89462 8.07089 1.46458 63.349 1.3592 0.698291 28.7808 6.44136e-006 2.67835e-006 179.141 1.90093 88.5892 -7.58602 -0.756037 -0.0524041 62.7276 -1.24598 -0.630941 28.7808 1.40364e-005 2.62948e-005 0.00457519 6.34076 -90.0636 14.1924 -0.00100801 -0.00029622 2.52148 -0.00101958 -0.000258079 -20.0137 -0.000875338 -0.000585792 -0.0010324 -0.000873523 -0.000587829 100.834 -18.8382 -85.4498 -7.45416 37.3119 -7.77714 -0.753579 0.0729816 -3.93933 -5.37983 -0.320005 -0.0162397 -79.0149 -21.6215 94.2545 19.4407 -38.0843 -2.43888 0.035675 37.935 -5.19263 0.181968 0.0374031 0.74631 1.74803 -0.00062941 -0.000148299 -7.40324 0.00153739 0.00207787 
2.9027 97.9483 -21.0899 -177.427 -89.8876 -177.408 -171.718 2.90152 92.061 -9.30159 8.00161 1.42452 63.3628 1.37539 0.698492 28.7808 6.44136e-006 2.67835e-006 179.157 1.88744 88.5578 -7.77415 -0.778768 -0.0524043 62.8591 -1.22147 -0.620173 28.7808 1.40364e-005 2.62948e-005 -0.00673412 6.3487 -90.0134 14.1765 -0.0166079 -0.00518919 2.50555 -0.0168215 -0.00446338 -20.0296 -0.0142879 -0.00994563 -0.0169596 -0.0142755 -0.00993636 100.827 -18.9073 -85.4444 -7.48405 37.3155 -7.76339 -0.741468 0.072983 -3.92331 -5.37983 -0.320005 -0.0162397 -79.04 -21.5997 94.2126 19.452 -38.0964 -2.3851 0.128065 37.9955 -5.31554 0.138798 0.0374008 0.983168 1.66144 -0.00062941 0.00108817 -7.28653 0.001278 0.0315251 
2.86815 97.9305 -21.1149 -165.591 -89.8383 -165.599 -171.697 3.01031 92.0653 -9.58792 7.93981 1.39014 63.4559 1.38483 0.70017 28.7808 6.44136e-006 2.67835e-006 179.177 2.40713 88.5541 -8.89224 -0.831718 -0.052405 63.3486 -1.32145 -0.686147 28.7808 1.40364e-005 2.62948e-005 -0.011449 6.35243 -89.9915 14.169 -0.0238539 -0.0116987 2.49806 -0.0243426 -0.0106421 -20.0371 -0.0192396 -0.0183195 -0.0244487 -0.0192313 -0.0183199 100.831 -18.893 -85.4325 -7.41307 37.2955 -7.76732 -0.753916 0.0729837 -3.91518 -5.37983 -0.320005 -0.0162397 -78.9937 -21.6761 94.322 19.4067 -38.2707 -2.60124 0.2378 38.2111 -5.27812 0.286644 0.0374021 0.856578 1.66149 -0.00107797 0.0590056 -7.27792 -0.00417894 0.00295263 
2.83864 97.9243 -21.1406 -164.531 -89.8357 -164.549 -171.717 2.89633 92.0622 -9.32506 7.98852 1.43756 63.3763 1.34357 0.680455 28.7808 6.44136e-006 2.67835e-006 179.158 2.12006 88.55 -8.26235 -0.897151 -0.0524059 63.0795 -1.25071 -0.640991 28.7808 1.40364e-005 2.62948e-005 -0.0137195 6.35948 -90.014 14.1549 -0.0325945 -0.0152003 2.48393 -0.0332298 -0.0137595 -20.0512 -0.0265196 -0.0242924 -0.0385743 -0.0265152 -0.0242946 100.903 -18.7778 -85.2733 -7.14479 37.2592 -7.94669 -0.781498 0.0729843 -3.90777 -5.37983 -0.320005 -0.0162397 -78.9607 -21.7368 94.389 19.3985 -38.3121 -2.7247 0.27444 38.3125 -5.34448 0.327732 0.0367364 1.04587 1.91859 -0.00828436 0.141768 -7.51055 -0.0267445 -0.0292864 
2.81998 97.9201 -21.1657 -166.976 -89.7124 -167.008 -171.69 2.97592 92.0766 -9.73004 7.92819 1.41666 63.5259 1.33911 0.672773 28.7808 6.44136e-006 2.67835e-006 179.191 2.5779 88.5597 -9.4556 -0.836737 -0.0524051 63.6291 -1.33131 -0.696004 28.7808 1.40364e-005 2.62948e-005 -0.0177156 6.36356 -89.9795 14.1472 -0.0346267 -0.0109653 2.4763 -0.0350724 -0.00944496 -20.0589 -0.0297368 -0.020872 -0.0462132 -0.0297277 -0.0208674 100.832 -19.097 -85.4317 -7.4911 37.3015 -7.72202 -0.751762 0.0729849 -3.90131 -5.37983 -0.320005 -0.0162397 -78.9732 -21.6437 94.3538 19.3282 -38.318 -2.73257 0.300496 37.9522 -5.35634 0.189284 0.0268934 0.878478 1.59628 -0.014329 -0.0341855 -7.13267 -0.0121866 0.105163 
2.80302 97.9325 -21.2144 -143.715 -89.7883 -143.705 -171.689 2.98265 92.1115 -9.41916 7.78308 1.35286 63.3623 1.37714 0.69831 28.7808 6.44136e-006 2.67835e-006 179.188 2.14253 88.6088 -8.22546 -0.901051 -0.052406 63.0076 -1.33045 -0.68616 28.7808 1.40364e-005 2.62948e-005 -0.0114387 6.36591 -90.016 14.1598 -0.0299819 -0.0251599 2.48881 -0.0310603 -0.0238269 -20.0463 -0.0210359 -0.0330144 -0.0336832 -0.0210333 -0.0330094 100.864 -18.9551 -85.3571 -7.2348 37.2594 -7.86439 -0.764611 0.0729868 -3.8797 -5.37983 -0.320005 -0.0162397 -78.9669 -21.5982 94.3699 19.2392 -38.2628 -2.73235 0.327645 37.8838 -5.44571 0.139699 0.0272308 0.995579 1.83316 0.00182269 0.00163218 -7.36062 -0.00192198 0.121381 
2.80638 97.9417 -21.2305 -176.742 -89.8385 -176.708 -171.704 3.03685 92.1135 -9.47907 7.99448 1.45033 63.3846 1.29695 0.652534 28.7808 6.44136e-006 2.67835e-006 179.202 2.09159 88.6381 -8.11325 -0.755242 -0.0524041 62.9384 -1.33348 -0.68662 28.7808 1.40364e-005 2.62948e-005 -0.0227843 6.36767 -90.0226 14.1615 -0.0544731 -0.027754 2.49059 -0.0556473 -0.0253383 -20.0446 -0.0436174 -0.0428464 -0.0319196 -0.0436158 -0.042846 100.853 -19.0922 -85.3819 -7.32264 37.2966 -7.81066 -0.791297 0.0729832 -3.92084 -5.37983 -0.320005 -0.0162397 -78.9866 -21.5684 94.3183 19.2207 -38.2927 -2.73682 0.410891 37.9392 -5.41726 -0.191002 0.00688845 0.746066 1.85209 -0.00628904 -0.0991678 -7.33226 0.00146774 0.21866 
2.7967 97.9394 -21.2673 172.504 -89.7767 172.505 -171.715 3.07996 92.0864 -9.65259 8.02627 1.46515 63.4342 1.29704 0.650618 28.7808 6.44136e-006 2.67835e-006 179.185 2.2343 88.5902 -8.51276 -0.87773 -0.0524057 63.1465 -1.31297 -0.677266 28.7808 1.40364e-005 2.62948e-005 -0.0269873 6.36892 -90.0166 14.162 -0.0630884 -0.0337259 2.49105 -0.0645027 -0.0309242 -20.0441 -0.0500763 -0.0511276 -0.0314676 -0.050071 -0.0511219 100.836 -19.0843 -85.4253 -7.32062 37.2802 -7.78068 -0.788492 0.0729828 -3.92527 -5.37983 -0.320005 -0.0162397 -79.0241 -21.714 94.2411 19.3567 -38.3267 -2.67907 0.496252 38.0031 -5.53143 -0.504298 -0.00159553 1.07903 1.65709 0.0323744 -0.0106517 -7.14849 0.0300672 0.128932 
2.78167 97.9446 -21.3027 174.418 -89.8039 174.447 -171.711 3.07066 92.1117 -9.51443 7.99294 1.45674 63.3487 1.29446 0.65035 28.7808 6.44136e-006 2.67835e-006 179.194 1.87862 88.6229 -7.67283 -0.831643 -0.052405 62.7369 -1.40423 -0.724743 28.7808 1.40364e-005 2.62948e-005 -0.0255779 6.36954 -90.0342 14.1598 -0.0644789 -0.0434623 2.48886 -0.0663407 -0.0405824 -20.0463 -0.0523581 -0.0608879 -0.0336516 -0.0523515 -0.0608903 100.832 -19.0277 -85.4418 -7.18618 37.2514 -7.81797 -0.803045 0.0729812 -3.94379 -5.37983 -0.320005 -0.0162397 -78.9637 -21.6325 94.3702 19.1468 -38.3127 -2.80592 0.640676 37.8518 -5.66169 -0.925081 -0.0218207 1.0655 1.77539 0.0251276 -0.0423801 -7.20358 0.0258791 0.136008 
2.78314 97.9795 -21.3345 165.361 -89.7143 165.408 -171.696 2.95212 92.1445 -9.38179 8.06855 1.4517 63.2514 1.28048 0.644284 28.7808 6.44136e-006 2.67835e-006 179.157 0.787386 88.6273 -5.60346 -0.853284 -0.052179 61.7951 -1.33938 -0.671481 28.7808 1.40364e-005 2.62948e-005 -0.0244161 6.36937 -90.0688 14.1509 -0.0647754 -0.0492181 2.47998 -0.0670216 -0.0461493 -20.0552 -0.0531994 -0.0675894 -0.0425406 -0.0531919 -0.0675981 100.782 -19.0715 -85.5624 -7.30656 37.2529 -7.66785 -0.796277 0.0729814 -3.94157 -5.37983 -0.320005 -0.0162397 -79.041 -21.7373 94.2026 19.3491 -38.3195 -2.57812 0.721122 37.6948 -5.74954 -1.31336 -0.0402828 1.06276 1.60955 0.00447894 0.0272092 -7.03217 -0.00190056 0.059686 
2.77685 97.9357 -21.3628 164.294 -89.6378 164.281 -171.726 3.17826 92.075 -9.99004 8.08079 1.50998 63.4919 1.28145 0.637076 28.7808 6.44136e-006 2.67835e-006 179.205 2.23157 88.6184 -8.69254 -0.6677 -0.0483736 63.2507 -1.45132 -0.75869 28.7808 1.40364e-005 2.62948e-005 -0.0284374 6.36928 -90.013 14.1349 -0.0646228 -0.0586892 2.46393 -0.0672381 -0.0555669 -20.0712 -0.0527126 -0.0769152 -0.0585807 -0.0527051 -0.0769172 100.766 -19.0976 -85.5972 -7.30523 37.2567 -7.66889 -0.809427 0.0729802 -3.95466 -5.37983 -0.320005 -0.0162397 -79.0287 -21.7722 94.2346 19.3245 -38.323 -2.60092 0.712595 37.7152 -5.71476 -1.3883 -0.0435872 1.08807 1.57522 -0.0131944 0.0516551 -6.92226 -0.0208166 0.0225247 
